<svg style="height: 512px; width: 512px;" xmlns="http://www.w3.org/2000/svg" viewBox="0 0 512 512"><defs><filter id="shadow-7" height="300%" width="300%" x="-100%" y="-100%"><feFlood flood-color="rgba(0, 0, 0, 1)" result="flood"></feFlood><feComposite in="flood" in2="SourceGraphic" operator="atop" result="composite"></feComposite><feGaussianBlur in="composite" stdDeviation="10" result="blur"></feGaussianBlur><feOffset dx="8" dy="12" result="offset"></feOffset><feComposite in="SourceGraphic" in2="offset" operator="over"></feComposite></filter><filter id="shadow-8" height="300%" width="300%" x="-100%" y="-100%"><feFlood flood-color="rgba(0, 0, 0, 1)" result="flood"></feFlood><feComposite in="flood" in2="SourceGraphic" operator="atop" result="composite"></feComposite><feGaussianBlur in="composite" stdDeviation="5" result="blur"></feGaussianBlur><feOffset dx="14" dy="10" result="offset"></feOffset><feComposite in="SourceGraphic" in2="offset" operator="over"></feComposite></filter><linearGradient x1="0" x2="1" y1="0" y2="1" id="lorc-swap-bag-gradient-0"><stop offset="0%" stop-color="#b8e986" stop-opacity="1"></stop><stop offset="100%" stop-color="#417505" stop-opacity="1"></stop></linearGradient><linearGradient x1="0" x2="1" y1="0" y2="1" id="lorc-swap-bag-gradient-2"><stop offset="0%" stop-color="#eacfa4" stop-opacity="1"></stop><stop offset="100%" stop-color="#b99a67" stop-opacity="1"></stop></linearGradient><linearGradient x1="0" x2="1" y1="0" y2="1" id="lorc-swap-bag-gradient-3"><stop offset="0%" stop-color="#fbe3ba" stop-opacity="1"></stop><stop offset="100%" stop-color="#d0b079" stop-opacity="1"></stop></linearGradient><linearGradient x1="0" x2="1" y1="0" y2="1" id="lorc-swap-bag-gradient-5"><stop offset="0%" stop-color="#d4b687" stop-opacity="1"></stop><stop offset="100%" stop-color="#b09363" stop-opacity="1"></stop></linearGradient><linearGradient x1="0" x2="1" y1="0" y2="1" id="lorc-swap-bag-gradient-8"><stop offset="0%" stop-color="#f2dab1" stop-opacity="1"></stop><stop offset="100%" stop-color="#6f5b39" stop-opacity="1"></stop></linearGradient></defs><circle cx="256" cy="256" r="246" fill="url(#lorc-swap-bag-gradient-0)" stroke="#ffffff" stroke-opacity="1" stroke-width="10"></circle><g class="" style="" transform="translate(0,0)"><g><path d="M363.783 23.545C354.001 23.602 347.2 26.592 343.039 33.765C325.529 63.945 304.607 95.41 294.487 131.01C297.323 131.84 300.122 132.797 302.86 133.863C310.213 136.726 317.24 140.345 323.402 144.721C350.936 119.179 381.567 99.511 410.852 79.259C422.208 71.405 423.125 65.675 421.035 58.429C418.945 51.183 411.167 42.064 400.51 35.253C389.852 28.443 376.64 23.923 365.78 23.573C365.1 23.551 364.435 23.543 363.783 23.546Z" class="selected" fill="url(#lorc-swap-bag-gradient-2)" stroke="#000000" stroke-opacity="1" stroke-width="8"></path><path d="M294.785 24.291C284.765 24.109 276.993 30.684 270.861 44.531C261.921 64.725 260.649 97.967 269.415 127.716C269.571 127.708 269.725 127.693 269.882 127.686C271.872 127.599 273.872 127.614 275.882 127.716C285.318 92.894 303.848 62.996 319.895 36.188C309.585 27.692 301.021 24.406 294.787 24.292Z" class="" fill="url(#lorc-swap-bag-gradient-3)" stroke="#000000" stroke-opacity="1" stroke-width="8"></path><path d="M197.5 82.5L187 97.97C201.82 108.01 216.056 117.695 226.813 129.344C230.729 133.584 234.183 138.066 237.123 142.951C240.893 138.221 245.633 134.573 250.813 132.159C251.22 131.971 251.633 131.804 252.041 131.629C248.618 126.189 244.737 121.211 240.531 116.657C227.765 102.83 212.29 92.52 197.5 82.5Z" class="" fill="#f5bb23" fill-opacity="1"></path><path d="M421.27 94.77C392.015 114.998 362.695 133.922 336.922 157.55C337.36 158.126 337.77 158.718 338.18 159.31C358.86 152.56 387.666 143.977 412.096 139.9C423.58 137.984 427.756 133.348 429.67 126.672C431.584 119.996 430.117 109.962 424.354 99.689C423.43 98.042 422.394 96.399 421.271 94.769Z" class="" fill="url(#lorc-swap-bag-gradient-5)" stroke="#000000" stroke-opacity="1" stroke-width="8"></path><path d="M197.332 142.64C182.382 142.84 167.6 146.94 153.375 155.406L162.938 171.436C184.595 158.546 205.564 157.303 228.17 166.873C228.69 161.281 229.935 156.213 231.898 151.663C232.248 150.857 232.628 150.077 233.021 149.309C221.151 144.789 209.191 142.482 197.333 142.639Z" class="" fill="#f5bb23" fill-opacity="1"></path><path d="M273.132 146.574C267.554 146.491 262.535 147.316 258.705 149.1C254.328 151.138 251.239 154.014 249.057 159.07C248.173 161.117 247.485 163.61 247.072 166.564C247.528 166.557 247.982 166.534 248.437 166.531C264.49 166.447 281.024 169.301 297.75 175.721C305.464 178.681 312.812 183.174 319.797 188.905C323.014 186.46 324.787 184.185 325.57 182.37C326.78 179.572 326.665 177.186 324.936 173.55C321.476 166.275 309.729 156.595 296.08 151.28C289.256 148.622 282.1 147.056 275.557 146.666C274.739 146.616 273.93 146.586 273.133 146.574Z" class="" fill="#f5bb23" fill-opacity="1" stroke="#f5bb23" stroke-opacity="1" stroke-width="30" filter="url(#shadow-7)"></path><path d="M248.375 185.031C225.393 185.106 203.653 192.417 183.375 204.813C150.93 224.648 122.81 257.937 103.031 294.845C83.254 331.753 71.898 372.255 71.845 405.375C71.792 438.435 82.105 462.645 104.657 473.157C104.7 473.177 104.739 473.2 104.782 473.22L104.814 473.22C129.686 484.73 170.43 492.557 213.221 493.312C256.011 494.068 301.011 487.855 335.095 473.125C357.055 463.635 369.64 444.673 375.595 418.969C381.549 393.264 380.113 361.312 373.22 329.655C366.326 297.998 354.02 266.595 339.125 241.78C324.231 216.966 306.511 199.116 291.062 193.187C276.398 187.56 262.164 184.987 248.375 185.031Z" class="" fill="url(#lorc-swap-bag-gradient-8)" stroke="#000000" stroke-opacity="1" stroke-width="8" filter="url(#shadow-8)"></path></g></g></svg>